# xmcd CD database file
#
# Track frame offsets:
#	150
#	26789
#	57765
#	100057
#	128392
#	157446
#	218376
#	233028
#
# Disc length: 3789 seconds
#
# Revision: 0
# Processed by: cddbd v1.5.1PL2 Copyright (c) Steve Scherf et al.
# Submitted via: CDex 1.51
#
DISCID=600ecb08
DTITLE=Jordi Vilà - I Els Seus Amigos
DYEAR=2000
DGENRE=Jazz
TTITLE0=La casita
TTITLE1=MDM
TTITLE2=Charles
TTITLE3=Soñando con Duke
TTITLE4=13 de Monk
TTITLE5=Nostalgia en Times Square
TTITLE6=Self Portrait in Three Colors
TTITLE7=The End And Background
EXTD=YEAR: 2000
EXTT0=
EXTT1=
EXTT2=
EXTT3=
EXTT4=
EXTT5=
EXTT6=
EXTT7=
PLAYORDER=
